<svg width="381" height="552" viewBox="0 0 381 552" fill="none" xmlns="http://www.w3.org/2000/svg">
<path d="M131.402 455.926C136.464 473.725 143.123 490.57 151.716 507.27C148.698 507.026 148.028 505.447 147.105 504.342C135.406 490.34 120.607 482.642 101.034 481.847C85.4451 481.214 74.125 473.426 70.1239 458.707C65.2562 440.799 46.7038 433.499 30.378 436.869C29.0307 437.147 27.635 437.879 25.6841 436.788C24.6765 430.77 25.947 424.402 26.6117 418.225C29.7349 389.202 36.1186 360.761 47.0641 333.359C59.6544 301.84 78.1512 273.405 99.9463 246.674C129.004 211.037 162.364 179.075 196.349 147.584C216.882 128.557 234.475 107.38 247.044 82.8853C247.817 81.3776 248.435 79.7961 249.037 78.2198C249.192 77.8121 249.013 77.2937 248.932 75.8304C242.335 85.3852 236.549 94.3755 229.984 102.895C217.023 119.71 202.425 135.164 186.34 149.43C150.835 180.917 115.931 212.909 86.6981 249.788C69.1848 271.882 54.3492 295.337 43.5101 320.929C42.5758 323.135 42.933 325.935 40.064 328.162C39.6757 323.25 41.2609 319.204 42.1357 315.145C47.4424 290.52 60.2506 269.068 75.1733 248.541C90.2413 227.814 107.879 208.987 124.994 189.75C135.718 177.696 141.265 162.999 145.876 148.138C151.268 130.757 152.979 113.02 150.627 95.0084C150.569 94.5614 150.204 94.149 149.963 93.6835C147.638 93.8114 147.557 95.5033 147.255 96.8747C140.119 129.262 121.085 154.846 94.8391 176.35C78.9871 189.338 61.4748 200.316 44.7927 212.298C29.8942 222.999 16.482 234.763 12.7193 253.492C10.973 250.147 10.837 244.325 11.6939 239.724C14.8904 222.558 25.9191 210.402 40.568 200.608C56.076 190.239 71.9375 180.315 87.2176 169.667C110.199 153.653 127.544 133.412 138.07 108.374C138.767 106.716 138.798 106.727 138.426 103.696C137.559 103.37 137.015 103.902 136.61 104.424C120.871 124.726 99.2383 137.495 74.6356 146.556C58.3933 152.537 41.9565 158.105 26.5615 165.93C16.4726 171.058 6.79069 176.483 2.66637 187.34C2.53343 187.69 1.84029 187.856 0.854248 188.431C2.09379 174.471 7.0189 162.823 18.916 154.299C31.6897 145.147 46.4311 139.763 61.5679 135.231C80.0029 129.712 98.0223 123.529 113.17 111.754C128.586 99.7702 140.638 85.6971 145.733 67.2397C147.534 60.7172 151.154 55.4335 156.314 50.6697C165.327 42.3486 174.915 34.5723 183.681 25.6986C177.063 44.6222 173.78 63.7912 175.12 83.6565C171.425 77.5158 170.93 70.4369 166.944 64.4612C164.972 68.8222 165.276 73.2804 165.874 77.603C168.009 93.0294 170.272 108.436 169.844 124.044C169.801 125.608 170.427 127.405 167.858 129.204C166.311 121.035 166.511 112.902 162.029 105.619C162.327 125.355 162.173 144.969 154.741 163.911C159.847 161.989 162.843 159.157 164.06 154.564C168.336 138.418 173.794 122.695 183.442 108.464C190.713 97.7412 200.271 88.8353 209.329 79.5221C219.013 69.5646 228.469 59.45 235.309 47.5045C236.304 45.7685 237.637 44.0968 237.271 41.9376C236.903 41.8593 236.403 41.6461 236.311 41.7487C226.182 53.045 213.491 61.6724 201.281 70.791C190.369 78.9397 181.572 88.4433 177.903 101.367C177.79 101.768 177.233 102.059 176.474 102.8C174.935 98.6378 176.594 94.9984 177.364 91.5176C180.115 79.0748 187.738 69.1512 197.412 60.5694C203.534 55.1388 210.18 50.2217 216.504 44.9841C227.932 35.5198 238.229 25.2862 241.953 10.864C242.87 7.31293 243.485 3.69455 244.237 0.117054C245.932 -0.220776 246.016 1.14125 246.346 1.8791C252.325 15.2128 262.363 25.1693 275.504 32.6559C283.332 37.1162 291.413 41.2075 298.623 46.5841C306.225 52.2524 311.197 59.3795 313.398 68.1914C313.599 68.9995 313.898 69.8341 312.368 70.84C308.778 65.0759 306.181 58.5345 299.89 54.8162C297.442 55.8219 297.564 57.6637 297.647 59.2603C299.221 89.4959 285.52 115.266 269.985 140.413C260.024 156.538 248.99 172.083 239.601 188.524C225.278 213.608 219.465 240.192 222.631 268.55C224.028 281.055 226.364 293.266 231.184 305.657C234.471 278.419 245.667 254.877 263.184 233.779C278.524 215.302 297.682 200.545 316.989 185.925C331.543 174.905 345.58 163.36 358.014 150.237C367.829 139.878 376.194 128.716 380.124 115.023C381.464 125.122 381.036 135.078 378.125 144.9C372.914 162.479 360.298 175.326 346.32 187.134C332.559 198.758 317.073 208.386 302.373 218.924C284.969 231.4 269.413 245.5 257.842 263.038C249.39 275.85 243.128 289.401 242.725 304.802C246.506 296.284 249.89 287.641 255.346 279.833C271.787 256.305 293.882 238.372 319.131 223.507C330.559 216.779 342.009 210.086 352.059 201.579C362.058 193.114 370.467 183.651 374.036 171.157C374.244 170.43 374.901 169.814 375.805 169.305C375.341 178.006 372.795 186.179 369.395 194.196C362.545 210.346 349.944 222.135 335.972 233.001C317.872 247.078 298.314 259.58 281.985 275.572C269.195 288.098 258.731 301.94 254.037 319.08C250.521 331.919 252.807 343.498 260.792 354.378C274.012 372.392 292.449 384.917 311.765 396.494C318.877 400.757 326.361 404.483 333.67 408.463C334.728 409.039 336.054 409.356 336.571 411.469C304.386 402.854 275.849 389.539 253.511 366.125C231.315 342.86 215.753 316.392 208.475 285.962C201.204 255.568 204 225.827 216.123 196.784C206.985 210.564 200.641 225.421 199.237 241.479C194.304 297.904 216.164 345.019 258.528 384.576C277.485 402.277 299.066 416.792 323.053 428.07C327.19 430.015 327.927 432.122 326.737 435.91C324.135 444.194 318.943 450.07 310.044 453.05C305.668 454.516 300.946 455.043 296.941 457.597C294.554 459.118 292.929 456.8 291.349 455.664C269.396 439.881 250.39 421.389 233.408 401.037C216.816 381.152 204.198 359.301 195.48 335.417C196.442 345.483 199.162 355.153 202.328 364.722C214.672 402.023 237.4 433.542 265.36 462.103C272.396 469.291 279.637 476.312 286.983 483.226C289.294 485.402 290.01 487.346 289.004 490.33C286.195 498.66 280.733 504.742 272.2 508.334C267.292 510.399 262.129 511.981 257.658 516.278C211.575 461.615 181.75 400.916 169.618 333.246C164.93 347.403 175.795 404.494 191.397 444.8C205.465 481.145 224.626 514.933 251.242 545.131C247.594 549.308 242.694 550.969 237.52 551.37C220.432 552.693 205.254 547.417 191.209 538.875C187.514 536.628 185.322 533.011 183.151 529.53C162.256 496.022 148.205 460.265 141.957 421.889C137.699 395.735 137.795 369.593 140.868 343.35C145.077 307.418 156.121 273.333 172.125 240.522C173.758 237.173 175.169 233.731 175.892 229.848C173.205 233.767 170.308 237.577 167.864 241.623C147.965 274.559 133.002 309.305 125.968 346.586C121.478 370.388 120.95 394.472 124.073 418.599C125.687 431.07 128.108 443.35 131.402 455.926ZM258.629 104.32C243.971 124.32 227.089 142.626 209.237 160.181C180.623 188.32 152.582 216.893 127.055 247.569C102.039 277.632 81.95 310.192 67.7781 345.792C58.2409 369.75 53.7171 394.815 50.9126 420.164C50.2064 426.548 50.6735 431.746 58.4959 434.659C62.5263 436.161 65.5795 439.93 69.0369 442.644C71.1573 440.785 70.7706 438.82 70.6096 437.064C70.0572 431.042 70.3702 425.052 70.5558 419.021C71.1397 400.043 74.1916 381.428 79.0929 363.055C90.3066 321.022 112.61 284.18 140.352 249.83C167.809 215.834 200.081 185.792 230.469 154.2C246.219 137.827 261.629 121.178 273.323 101.932C281.829 87.9321 286.768 73.0878 284.918 56.7712C284.749 55.2784 285.504 53.2118 282.029 52.9513C278.227 71.3197 270.417 88.2314 258.629 104.32ZM97.1696 469.14C103.993 471.444 111.344 469.871 119.654 472.797C103.13 434.251 101.363 395.564 106.208 355.226C103.05 358.013 102.761 360.449 102.093 362.634C94.1789 388.547 89.9824 414.924 92.1471 441.885C92.8641 450.815 93.4024 459.896 97.1696 469.14ZM226.449 79.4676C220.031 85.5645 213.614 91.6625 207.195 97.758C196.3 108.103 186.55 119.204 180.72 132.838C180.05 134.405 178.333 135.935 180.501 139.053C204.576 111.9 233.586 88.8283 246.796 54.7914C240.597 63.1296 234.138 71.2838 226.449 79.4676Z" fill="white"/>
<path d="M238.682 234.359C250.058 211.359 266.269 191.998 284.774 174.217C301.549 158.098 319.599 143.086 334.335 125.206C348.663 107.82 361.051 89.4007 366.462 67.7343C368.799 58.3758 370.33 48.8429 369.064 39.0175C372.771 44.6322 374.743 50.7592 376.498 56.9574C381.505 74.6325 377.341 91.0393 368.514 106.812C357.377 126.714 341.302 142.897 324.135 158.336C306.399 174.286 287.178 188.785 270.479 205.741C252.761 223.731 238.384 243.564 231.232 267.391C230.385 270.213 230.574 273.339 228.153 275.759C228.328 261.385 232.207 247.792 238.682 234.359Z" fill="white"/>
<path d="M23.5832 290.381C24.5074 294.599 27.1571 297.704 28.8035 301.424C26.2631 302.374 25.3406 300.628 24.2012 299.569C7.69886 284.221 6.62707 264.53 21.6589 246.587C33.6397 232.285 49.2069 221.654 64.8189 211.098C79.969 200.854 95.1759 190.62 108.475 178.286C127.887 160.285 139.895 138.528 145.265 113.563C145.674 111.662 146.327 109.807 147.424 108.01C148.856 114.971 146.953 121.7 145.315 128.309C137.889 158.26 119.716 182.209 96.2101 203.08C77.7117 219.505 57.0101 233.7 39.6642 251.29C32.1456 258.914 26.1655 267.36 23.5332 277.607C22.4659 281.761 22.3308 285.854 23.5832 290.381Z" fill="white"/>
<path d="M254.669 192.71C246.601 203.795 240.021 215.208 235.232 227.917C233.403 225.74 234.467 224.229 234.886 222.682C241.293 199.016 255.337 179.35 272.006 161.001C287.36 144.099 304.685 128.861 319.79 111.75C330.93 99.1287 341.021 85.9572 346.935 70.3874C347.212 69.66 347.869 69.0579 348.858 67.6978C349.478 72.1721 347.523 75.2607 346.393 78.4422C339.017 99.2069 326.011 116.713 310.193 132.658C291.023 151.981 270.843 170.51 254.669 192.71Z" fill="white"/>
<path d="M23.0204 191.65C17.3533 196.129 13.2599 201.282 10.1516 207.307C9.49666 202.741 10.8357 198.691 12.9718 194.782C19.4116 182.996 30.911 176.659 43.0716 171.415C59.4009 164.374 75.912 157.716 91.3156 148.969C91.8758 148.65 92.6059 148.591 94.0549 148.19C92.8406 151.109 90.5612 152.051 88.6459 153.296C75.0466 162.136 60.3175 169.228 46.0429 177.021C38.1096 181.351 30.3744 185.918 23.0204 191.65Z" fill="white"/>
</svg>
