<svg width="541" height="673" viewBox="0 0 541 673" fill="none" xmlns="http://www.w3.org/2000/svg">
<path d="M211.402 455.926C216.464 473.725 223.123 490.57 231.716 507.27C228.698 507.026 228.028 505.447 227.105 504.342C215.406 490.34 200.607 482.642 181.034 481.847C165.445 481.214 154.125 473.426 150.124 458.707C145.256 440.799 126.704 433.499 110.378 436.869C109.031 437.147 107.635 437.879 105.684 436.788C104.677 430.77 105.947 424.402 106.612 418.225C109.735 389.202 116.119 360.761 127.064 333.359C139.654 301.84 158.151 273.405 179.946 246.674C209.004 211.037 242.364 179.075 276.349 147.584C296.882 128.557 314.475 107.38 327.044 82.8853C327.817 81.3776 328.435 79.7961 329.037 78.2198C329.192 77.8121 329.013 77.2937 328.932 75.8304C322.335 85.3852 316.549 94.3755 309.984 102.895C297.023 119.71 282.425 135.164 266.34 149.43C230.835 180.917 195.931 212.909 166.698 249.788C149.185 271.882 134.349 295.337 123.51 320.929C122.576 323.135 122.933 325.935 120.064 328.162C119.676 323.25 121.261 319.204 122.136 315.145C127.442 290.52 140.251 269.068 155.173 248.541C170.241 227.814 187.879 208.987 204.994 189.75C215.718 177.696 221.265 162.999 225.876 148.138C231.268 130.757 232.979 113.02 230.627 95.0084C230.569 94.5614 230.204 94.149 229.963 93.6835C227.638 93.8114 227.557 95.5033 227.255 96.8747C220.119 129.262 201.085 154.846 174.839 176.35C158.987 189.338 141.475 200.316 124.793 212.298C109.894 222.999 96.482 234.763 92.7193 253.492C90.973 250.147 90.837 244.325 91.6939 239.724C94.8904 222.558 105.919 210.402 120.568 200.608C136.076 190.239 151.937 180.315 167.218 169.667C190.199 153.653 207.544 133.412 218.07 108.374C218.767 106.716 218.798 106.727 218.426 103.696C217.559 103.37 217.015 103.902 216.61 104.424C200.871 124.726 179.238 137.495 154.636 146.556C138.393 152.537 121.956 158.105 106.561 165.93C96.4726 171.058 86.7907 176.483 82.6664 187.34C82.5334 187.69 81.8403 187.856 80.8542 188.431C82.0938 174.471 87.0189 162.823 98.916 154.299C111.69 145.147 126.431 139.763 141.568 135.231C160.003 129.712 178.022 123.529 193.17 111.754C208.586 99.7702 220.638 85.6971 225.733 67.2397C227.534 60.7172 231.154 55.4335 236.314 50.6697C245.327 42.3486 254.915 34.5723 263.681 25.6986C257.063 44.6222 253.78 63.7912 255.12 83.6565C251.425 77.5158 250.93 70.4369 246.944 64.4612C244.972 68.8222 245.276 73.2804 245.874 77.603C248.009 93.0294 250.272 108.436 249.844 124.044C249.801 125.608 250.427 127.405 247.858 129.204C246.311 121.035 246.511 112.902 242.029 105.619C242.327 125.355 242.173 144.969 234.741 163.911C239.847 161.989 242.843 159.157 244.06 154.564C248.336 138.418 253.794 122.695 263.442 108.464C270.713 97.7412 280.271 88.8353 289.329 79.5221C299.013 69.5646 308.469 59.45 315.309 47.5045C316.304 45.7685 317.637 44.0968 317.271 41.9376C316.903 41.8593 316.403 41.6461 316.311 41.7487C306.182 53.045 293.491 61.6724 281.281 70.791C270.369 78.9397 261.572 88.4433 257.903 101.367C257.79 101.768 257.233 102.059 256.474 102.8C254.935 98.6378 256.594 94.9984 257.364 91.5176C260.115 79.0748 267.738 69.1512 277.412 60.5694C283.534 55.1388 290.18 50.2217 296.504 44.9841C307.932 35.5198 318.229 25.2862 321.953 10.864C322.87 7.31293 323.485 3.69455 324.237 0.117054C325.932 -0.220776 326.016 1.14125 326.346 1.8791C332.325 15.2128 342.363 25.1693 355.504 32.6559C363.332 37.1162 371.413 41.2075 378.623 46.5841C386.225 52.2524 391.197 59.3795 393.398 68.1914C393.599 68.9995 393.898 69.8341 392.368 70.84C388.778 65.0759 386.181 58.5345 379.89 54.8162C377.442 55.8219 377.564 57.6637 377.647 59.2603C379.221 89.4959 365.52 115.266 349.985 140.413C340.024 156.538 328.99 172.083 319.601 188.524C305.278 213.608 299.465 240.192 302.631 268.55C304.028 281.055 306.364 293.266 311.184 305.657C314.471 278.419 325.667 254.877 343.184 233.779C358.524 215.302 377.682 200.545 396.989 185.925C411.543 174.905 425.58 163.36 438.014 150.237C447.829 139.878 456.194 128.716 460.124 115.023C461.464 125.122 461.036 135.078 458.125 144.9C452.914 162.479 440.298 175.326 426.32 187.134C412.559 198.758 397.073 208.386 382.373 218.924C364.969 231.4 349.413 245.5 337.842 263.038C329.39 275.85 323.128 289.401 322.725 304.802C326.506 296.284 329.89 287.641 335.346 279.833C351.787 256.305 373.882 238.372 399.131 223.507C410.559 216.779 422.009 210.086 432.059 201.579C442.058 193.114 450.467 183.651 454.036 171.157C454.244 170.43 454.901 169.814 455.805 169.305C455.341 178.006 452.795 186.179 449.395 194.196C442.545 210.346 429.944 222.135 415.972 233.001C397.872 247.078 378.314 259.58 361.985 275.572C349.195 288.098 338.731 301.94 334.037 319.08C330.521 331.919 332.807 343.498 340.792 354.378C354.012 372.392 372.449 384.917 391.765 396.494C398.877 400.757 406.361 404.483 413.67 408.463C414.728 409.039 416.054 409.356 416.571 411.469C384.386 402.854 355.849 389.539 333.511 366.125C311.315 342.86 295.753 316.392 288.475 285.962C281.204 255.568 284 225.827 296.123 196.784C286.985 210.564 280.641 225.421 279.237 241.479C274.304 297.904 296.164 345.019 338.528 384.576C357.485 402.277 379.066 416.792 403.053 428.07C407.19 430.015 407.927 432.122 406.737 435.91C404.135 444.194 398.943 450.07 390.044 453.05C385.668 454.516 380.946 455.043 376.941 457.597C374.554 459.118 372.929 456.8 371.349 455.664C349.396 439.881 330.39 421.389 313.408 401.037C296.816 381.152 284.198 359.301 275.48 335.417C276.442 345.483 279.162 355.153 282.328 364.722C294.672 402.023 317.4 433.542 345.36 462.103C352.396 469.291 359.637 476.312 366.983 483.226C369.294 485.402 370.01 487.346 369.004 490.33C366.195 498.66 360.733 504.742 352.2 508.334C347.292 510.399 342.129 511.981 337.658 516.278C291.575 461.615 261.75 400.916 249.618 333.246C244.93 347.403 255.795 404.494 271.397 444.8C285.465 481.145 304.626 514.933 331.242 545.131C327.594 549.308 322.694 550.969 317.52 551.37C300.432 552.693 285.254 547.417 271.209 538.875C267.514 536.628 265.322 533.011 263.151 529.53C242.256 496.022 228.205 460.265 221.957 421.889C217.699 395.735 217.795 369.593 220.868 343.35C225.077 307.418 236.121 273.333 252.125 240.522C253.758 237.173 255.169 233.731 255.892 229.848C253.205 233.767 250.308 237.577 247.864 241.623C227.965 274.559 213.002 309.305 205.968 346.586C201.478 370.388 200.95 394.472 204.073 418.599C205.687 431.07 208.108 443.35 211.402 455.926ZM338.629 104.32C323.971 124.32 307.089 142.626 289.237 160.181C260.623 188.32 232.582 216.893 207.055 247.569C182.039 277.632 161.95 310.192 147.778 345.792C138.241 369.75 133.717 394.815 130.913 420.164C130.206 426.548 130.674 431.746 138.496 434.659C142.526 436.161 145.579 439.93 149.037 442.644C151.157 440.785 150.771 438.82 150.61 437.064C150.057 431.042 150.37 425.052 150.556 419.021C151.14 400.043 154.192 381.428 159.093 363.055C170.307 321.022 192.61 284.18 220.352 249.83C247.809 215.834 280.081 185.792 310.469 154.2C326.219 137.827 341.629 121.178 353.323 101.932C361.829 87.9321 366.768 73.0878 364.918 56.7712C364.749 55.2784 365.504 53.2118 362.029 52.9513C358.227 71.3197 350.417 88.2314 338.629 104.32ZM177.17 469.14C183.993 471.444 191.344 469.871 199.654 472.797C183.13 434.251 181.363 395.564 186.208 355.226C183.05 358.013 182.761 360.449 182.093 362.634C174.179 388.547 169.982 414.924 172.147 441.885C172.864 450.815 173.402 459.896 177.17 469.14ZM306.449 79.4676C300.031 85.5645 293.614 91.6625 287.195 97.758C276.3 108.103 266.55 119.204 260.72 132.838C260.05 134.405 258.333 135.935 260.501 139.053C284.576 111.9 313.586 88.8283 326.796 54.7914C320.597 63.1296 314.138 71.2838 306.449 79.4676Z" fill="white"/>
<path d="M318.682 234.359C330.058 211.359 346.269 191.998 364.774 174.217C381.549 158.098 399.599 143.086 414.335 125.206C428.663 107.82 441.051 89.4007 446.462 67.7343C448.799 58.3758 450.33 48.8429 449.064 39.0175C452.771 44.6322 454.743 50.7592 456.498 56.9574C461.505 74.6325 457.341 91.0393 448.514 106.812C437.377 126.714 421.302 142.897 404.135 158.336C386.399 174.286 367.178 188.785 350.479 205.741C332.761 223.731 318.384 243.564 311.232 267.391C310.385 270.213 310.574 273.339 308.153 275.759C308.328 261.385 312.207 247.792 318.682 234.359Z" fill="white"/>
<path d="M103.583 290.381C104.507 294.599 107.157 297.704 108.804 301.424C106.263 302.374 105.341 300.628 104.201 299.569C87.6989 284.221 86.6271 264.53 101.659 246.587C113.64 232.285 129.207 221.654 144.819 211.098C159.969 200.854 175.176 190.62 188.475 178.286C207.887 160.285 219.895 138.528 225.265 113.563C225.674 111.662 226.327 109.807 227.424 108.01C228.856 114.971 226.953 121.7 225.315 128.309C217.889 158.26 199.716 182.209 176.21 203.08C157.712 219.505 137.01 233.7 119.664 251.29C112.146 258.914 106.165 267.36 103.533 277.607C102.466 281.761 102.331 285.854 103.583 290.381Z" fill="white"/>
<path d="M334.669 192.71C326.601 203.795 320.021 215.208 315.232 227.917C313.403 225.74 314.467 224.229 314.886 222.682C321.293 199.016 335.337 179.35 352.006 161.001C367.36 144.099 384.685 128.861 399.79 111.75C410.93 99.1287 421.021 85.9572 426.935 70.3874C427.212 69.66 427.869 69.0579 428.858 67.6978C429.478 72.1721 427.523 75.2607 426.393 78.4422C419.017 99.2069 406.011 116.713 390.193 132.658C371.023 151.981 350.843 170.51 334.669 192.71Z" fill="white"/>
<path d="M103.02 191.65C97.3533 196.129 93.2599 201.282 90.1516 207.307C89.4967 202.741 90.8357 198.691 92.9718 194.782C99.4116 182.996 110.911 176.659 123.072 171.415C139.401 164.374 155.912 157.716 171.316 148.969C171.876 148.65 172.606 148.591 174.055 148.19C172.841 151.109 170.561 152.051 168.646 153.296C155.047 162.136 140.318 169.228 126.043 177.021C118.11 181.351 110.374 185.918 103.02 191.65Z" fill="white"/>
<path d="M0.272 575.672H29.072V581.624L20.72 582.872L32.816 626.168L35.024 636.824L37.232 626.168L47.504 591.032L44.816 582.872L38.48 581.624V575.672H68.528V581.624L59.312 582.872L71.312 626.168L73.904 637.688L75.92 626.168L86.864 582.872L78.224 581.624V575.672H101.36V581.624L95.216 582.872L76.976 647.48H64.304L51.056 602.648L38.384 647.48H25.904L6.128 582.968L0.272 581.624V575.672ZM128.106 648.056C119.658 648.056 113.354 645.592 109.194 640.664C105.098 635.672 103.05 628.888 103.05 620.312C103.05 614.552 104.106 609.56 106.218 605.336C108.394 601.112 111.434 597.88 115.338 595.64C119.242 593.4 123.754 592.28 128.874 592.28C135.274 592.28 140.202 593.976 143.658 597.368C147.114 600.696 148.906 605.464 149.034 611.672C149.034 615.896 148.778 619.032 148.266 621.08H117.066C117.322 626.904 118.698 631.448 121.194 634.712C123.69 637.912 127.242 639.512 131.85 639.512C134.346 639.512 136.906 639.096 139.53 638.264C142.218 637.432 144.33 636.44 145.866 635.288L148.266 640.568C146.538 642.424 143.722 644.152 139.818 645.752C135.978 647.288 132.074 648.056 128.106 648.056ZM135.594 615.32C135.722 613.528 135.786 612.152 135.786 611.192C135.786 602.68 132.938 598.424 127.242 598.424C124.106 598.424 121.674 599.672 119.946 602.168C118.218 604.664 117.258 609.048 117.066 615.32H135.594ZM155.639 632.024C155.639 626.2 158.551 621.816 164.375 618.872C170.263 615.928 177.847 614.424 187.127 614.36V612.152C187.127 609.528 186.839 607.48 186.263 606.008C185.751 604.536 184.759 603.448 183.287 602.744C181.879 601.976 179.799 601.592 177.047 601.592C173.911 601.592 171.095 602.008 168.599 602.84C166.103 603.608 163.511 604.632 160.823 605.912L157.847 599.768C158.807 598.936 160.407 597.944 162.647 596.792C164.951 595.64 167.671 594.648 170.807 593.816C173.943 592.92 177.175 592.472 180.503 592.472C185.431 592.472 189.271 593.112 192.023 594.392C194.839 595.672 196.855 597.72 198.071 600.536C199.287 603.352 199.895 607.128 199.895 611.864V641.24H205.079V646.616C203.799 646.936 201.975 647.256 199.607 647.576C197.239 647.896 195.159 648.056 193.367 648.056C191.191 648.056 189.719 647.736 188.951 647.096C188.247 646.456 187.895 645.144 187.895 643.16V640.568C186.167 642.488 183.927 644.216 181.175 645.752C178.423 647.288 175.319 648.056 171.863 648.056C168.919 648.056 166.199 647.448 163.703 646.232C161.271 644.952 159.319 643.128 157.847 640.76C156.375 638.328 155.639 635.416 155.639 632.024ZM178.007 640.088C179.351 640.088 180.887 639.704 182.615 638.936C184.343 638.104 185.847 637.112 187.127 635.96V620.216C181.367 620.216 177.047 621.208 174.167 623.192C171.351 625.112 169.943 627.608 169.943 630.68C169.943 633.752 170.647 636.088 172.055 637.688C173.527 639.288 175.511 640.088 178.007 640.088ZM211.07 641.336L217.406 640.568V602.744L211.262 601.016V594.392L226.142 592.376H226.43L228.83 594.296V596.408L228.542 604.184H228.83C229.278 602.904 230.334 601.336 231.998 599.48C233.662 597.56 235.742 595.896 238.238 594.488C240.798 593.016 243.55 592.28 246.494 592.28C247.902 592.28 249.118 592.472 250.142 592.856V607.256C248.222 605.912 245.886 605.24 243.134 605.24C238.462 605.24 234.398 606.488 230.942 608.984V640.472L242.078 641.336V647H211.07V641.336ZM255.682 641.24L263.266 640.28V582.872L256.066 581.528V575.672H269.986C271.202 575.672 272.546 575.64 274.018 575.576C275.49 575.512 276.61 575.448 277.378 575.384C280.706 575.128 283.458 575 285.634 575C292.226 575 297.506 575.672 301.474 577.016C305.442 578.36 308.322 580.408 310.114 583.16C311.906 585.912 312.802 589.528 312.802 594.008C312.802 598.424 311.618 602.52 309.25 606.296C306.882 610.072 303.458 612.664 298.978 614.072C301.538 615.16 303.81 617.144 305.794 620.024C307.778 622.904 309.89 626.648 312.13 631.256C313.73 634.392 314.946 636.664 315.778 638.072C316.674 639.416 317.538 640.184 318.37 640.376L321.538 641.336V647H305.218C304.194 647 303.106 645.976 301.954 643.928C300.866 641.816 299.426 638.52 297.634 634.04C295.522 628.792 293.698 624.696 292.162 621.752C290.626 618.808 288.994 616.984 287.266 616.28H277.378V640.28L286.21 641.24V647H255.682V641.24ZM286.21 610.424C289.858 610.424 292.706 609.112 294.754 606.488C296.802 603.864 297.826 599.928 297.826 594.68C297.826 590.008 296.802 586.552 294.754 584.312C292.77 582.072 289.314 580.952 284.386 580.952C282.594 580.952 281.058 581.048 279.778 581.24C278.562 581.368 277.762 581.432 277.378 581.432V610.232C278.146 610.36 280.002 610.424 282.946 610.424H286.21ZM349.637 648.056C341.189 648.056 334.885 645.592 330.725 640.664C326.629 635.672 324.581 628.888 324.581 620.312C324.581 614.552 325.637 609.56 327.749 605.336C329.925 601.112 332.965 597.88 336.869 595.64C340.773 593.4 345.285 592.28 350.405 592.28C356.805 592.28 361.733 593.976 365.189 597.368C368.645 600.696 370.437 605.464 370.565 611.672C370.565 615.896 370.309 619.032 369.797 621.08H338.597C338.853 626.904 340.229 631.448 342.725 634.712C345.221 637.912 348.773 639.512 353.381 639.512C355.877 639.512 358.437 639.096 361.061 638.264C363.749 637.432 365.861 636.44 367.397 635.288L369.797 640.568C368.069 642.424 365.253 644.152 361.349 645.752C357.509 647.288 353.605 648.056 349.637 648.056ZM357.125 615.32C357.253 613.528 357.317 612.152 357.317 611.192C357.317 602.68 354.469 598.424 348.773 598.424C345.637 598.424 343.205 599.672 341.477 602.168C339.749 604.664 338.789 609.048 338.597 615.32H357.125ZM402.418 648.056C393.97 648.056 387.666 645.592 383.506 640.664C379.41 635.672 377.362 628.888 377.362 620.312C377.362 614.552 378.418 609.56 380.53 605.336C382.706 601.112 385.746 597.88 389.65 595.64C393.554 593.4 398.066 592.28 403.186 592.28C409.586 592.28 414.514 593.976 417.97 597.368C421.426 600.696 423.218 605.464 423.346 611.672C423.346 615.896 423.09 619.032 422.578 621.08H391.378C391.634 626.904 393.01 631.448 395.506 634.712C398.002 637.912 401.554 639.512 406.162 639.512C408.658 639.512 411.218 639.096 413.842 638.264C416.53 637.432 418.642 636.44 420.178 635.288L422.578 640.568C420.85 642.424 418.034 644.152 414.13 645.752C410.29 647.288 406.386 648.056 402.418 648.056ZM409.906 615.32C410.034 613.528 410.098 612.152 410.098 611.192C410.098 602.68 407.25 598.424 401.554 598.424C398.418 598.424 395.986 599.672 394.258 602.168C392.53 604.664 391.57 609.048 391.378 615.32H409.906ZM441.664 639.128C442.176 639.896 443.328 640.632 445.12 641.336C446.976 641.976 448.832 642.296 450.688 642.296C453.696 642.296 455.936 641.688 457.408 640.472C458.944 639.192 459.712 637.528 459.712 635.48C459.712 633.368 458.784 631.672 456.928 630.392C455.072 629.048 451.936 627.416 447.52 625.496L444.832 624.344C440.416 622.488 437.12 620.248 434.944 617.624C432.768 615 431.68 611.608 431.68 607.448C431.68 604.568 432.544 602.008 434.272 599.768C436 597.464 438.432 595.672 441.568 594.392C444.704 593.112 448.32 592.472 452.416 592.472C455.424 592.472 457.984 592.664 460.096 593.048C462.272 593.432 464.544 593.944 466.912 594.584C468.192 595.032 469.152 595.288 469.792 595.352V607.928H462.208L460 600.632C459.616 599.992 458.752 599.416 457.408 598.904C456.064 598.392 454.528 598.136 452.8 598.136C450.176 598.136 448.064 598.712 446.464 599.864C444.928 600.952 444.16 602.488 444.16 604.472C444.16 606.264 444.704 607.768 445.792 608.984C446.88 610.136 448.064 611.032 449.344 611.672C450.624 612.312 452.992 613.368 456.448 614.84C459.904 616.312 462.752 617.72 464.992 619.064C467.296 620.408 469.184 622.168 470.656 624.344C472.192 626.456 472.96 629.048 472.96 632.12C472.96 636.856 471.104 640.696 467.392 643.64C463.68 646.584 458.336 648.056 451.359 648.056C448.096 648.056 445.152 647.768 442.528 647.192C439.968 646.616 436.992 645.848 433.6 644.888L431.488 644.216V631.544H439.456L441.664 639.128ZM485.301 576.824L478.005 575.576V570.392L495.861 568.28H496.149L498.645 570.104L498.741 591.512L498.069 599.864C500.053 598.072 502.741 596.408 506.133 594.872C509.589 593.336 513.205 592.568 516.981 592.568C521.013 592.568 524.149 593.336 526.389 594.872C528.629 596.344 530.197 598.616 531.093 601.688C531.989 604.76 532.437 608.856 532.437 613.976V640.376L538.581 641.24V647H513.333V641.24L518.901 640.376V613.976C518.901 610.648 518.677 608.056 518.229 606.2C517.781 604.344 516.949 602.968 515.733 602.072C514.581 601.176 512.853 600.728 510.549 600.728C508.565 600.728 506.517 601.208 504.405 602.168C502.357 603.064 500.533 604.152 498.933 605.432V640.376L504.789 641.24V647H479.925V641.24L485.301 640.472V576.824Z" fill="white"/>
</svg>
